<?xml version="1.0" encoding="utf-8"?>
<!-- Generator: Adobe Illustrator 22.1.0, SVG Export Plug-In . SVG Version: 6.00 Build 0)  -->
<svg version="1.1" id="Layer_1" xmlns="http://www.w3.org/2000/svg" xmlns:xlink="http://www.w3.org/1999/xlink" x="0px" y="0px"
	 viewBox="0 0 100 100" style="enable-background:new 0 0 100 100;" xml:space="preserve">
<path d="M58.9,56.6h31v27.6c0,1.9-1.6,3.5-3.5,3.5H13.6c-1.9,0-3.5-1.6-3.5-3.5V56.6h31.3v0.9h1.2v7.3c0,1.9,1.6,3.5,3.5,3.5H54
	c1.9,0,3.5-1.6,3.5-3.5v-7.3h1.4L58.9,56.6z M92.1,27.8v21.6c0,1.9-1.6,3.5-3.5,3.5H11.4c-1.9,0-3.5-1.6-3.5-3.5V27.8
	c0-1.9,1.6-3.5,3.5-3.5h23.8v-6.9c0-2.8,2.3-5.1,5.1-5.1h19.3c2.8,0,5.1,2.3,5.1,5.1v6.9h23.8C90.5,24.3,92.1,25.9,92.1,27.8
	L92.1,27.8z M57.7,19.3H42.3v5h15.4V19.3z"/>
</svg>
